<svg width="74" height="70" viewBox="0 0 74 70" fill="none" xmlns="http://www.w3.org/2000/svg">
<path opacity="0.25" d="M68.9008 38.5727C68.9008 49.7173 62.8886 59.5148 53.9317 64.781C53.9317 64.781 53.8703 64.8422 53.809 64.8422C53.1955 65.2096 52.582 65.5158 51.9685 65.822C51.6618 66.0057 51.355 66.1281 51.0483 66.2506C50.9256 66.3118 50.8029 66.3731 50.6802 66.4343H50.6188C50.4961 66.4956 50.3121 66.5568 50.1894 66.618C49.2692 67.0467 48.2876 67.3528 47.306 67.659C47.1833 67.7202 46.9993 67.7815 46.8766 67.7815C46.8152 67.7815 46.7539 67.8427 46.6925 67.8427C46.6312 67.8427 46.5698 67.8427 46.5698 67.9039C46.5085 67.9039 46.4471 67.9039 46.3858 67.9652C45.0975 68.3326 43.7478 68.5775 42.3368 68.7612C41.0485 68.9449 39.7601 69.0062 38.4718 69.0062C36.386 69.0062 34.3614 68.8225 32.3983 68.3938C32.2756 68.3938 32.1529 68.3326 32.0302 68.3326C31.6008 68.2714 31.1713 68.1489 30.7419 68.0264C30.3124 67.9039 29.883 67.7815 29.4536 67.659C27.7358 67.1079 26.018 66.4343 24.423 65.6383C14.6072 60.5558 7.92017 50.3297 7.92017 38.5727C7.92017 21.7332 21.6009 8.13916 38.4105 8.13916C55.2813 8.13916 68.9008 21.7332 68.9008 38.5727Z" fill="url(#paint0_linear_1202_4620)"/>
<path d="M35.7692 24.7349C32.8245 22.3468 31.2908 18.3666 31.8429 14.6313C32.4564 10.4061 35.4625 9.61003 36.9962 10.2836C38.1005 10.7735 38.7753 12.2431 38.1618 13.3453C37.1189 15.3048 33.1312 14.5088 32.3337 11.1409C32.027 9.9162 32.3337 8.56905 33.0699 7.52806C34.2969 5.87473 36.5668 5.26239 38.5913 4.95622C39.0821 4.95622 39.5729 4.89498 40.0023 4.83375C41.1066 4.71128 42.4562 4.52758 43.8673 4.34387" stroke="#D8E2EE" stroke-width="0.625" stroke-miterlimit="10" stroke-linecap="round" stroke-linejoin="round"/>
<path d="M46.932 5.08406L45.0302 5.94135L45.3369 2.69592" fill="#D8E2EE"/>
<path d="M59.1426 1.10222L58.2837 1.59209L48.3452 7.16443L45.7686 3.36789L45.3391 2.69431L43.4987 0L57.5475 0.979751L59.1426 1.10222Z" fill="#EDF2F8"/>
<path d="M59.1407 1.09818L58.2819 1.58805L45.7667 3.36385L45.3373 2.69027L57.5457 0.975708L59.1407 1.09818Z" fill="#D8E2EE"/>
<path opacity="0.42" d="M9.00669 20.7351C9.81224 20.4738 10.253 19.6101 9.99118 18.8061C9.72936 18.0021 8.86409 17.5621 8.05854 17.8234C7.253 18.0848 6.81223 18.9484 7.07405 19.7525C7.33588 20.5565 8.20115 20.9965 9.00669 20.7351Z" fill="url(#paint1_linear_1202_4620)"/>
<path opacity="0.42" d="M12.3447 15.7442C12.8925 15.5665 13.1922 14.9793 13.0142 14.4325C12.8361 13.8858 12.2477 13.5866 11.7 13.7643C11.1522 13.942 10.8525 14.5293 11.0305 15.076C11.2085 15.6228 11.7969 15.922 12.3447 15.7442Z" fill="url(#paint2_linear_1202_4620)"/>
<path opacity="0.31" d="M24.9501 8.55456C25.9006 7.68762 25.9669 6.21577 25.0984 5.2671C24.2298 4.31843 22.7552 4.25217 21.8048 5.11911C20.8543 5.98605 20.788 7.45789 21.6565 8.40657C22.5251 9.35524 23.9997 9.4215 24.9501 8.55456Z" fill="#9D3FE7"/>
<path d="M72.8508 20.4952C73.251 20.1301 73.2789 19.5104 72.9132 19.111C72.5475 18.7115 71.9267 18.6836 71.5265 19.0486C71.1263 19.4137 71.0983 20.0334 71.464 20.4329C71.8298 20.8323 72.4506 20.8602 72.8508 20.4952Z" fill="#EDF2F8"/>
<path d="M47.6112 51.0137V67.8531C47.4885 67.9144 47.3658 67.9144 47.2431 67.9756C45.8321 68.343 44.3597 68.6492 42.8873 68.8329V51.0137H47.6112Z" fill="#4988FD"/>
<path d="M47.6112 51.0137V67.8531C47.4885 67.9144 47.3658 67.9144 47.2431 67.9756C45.8321 68.343 44.3597 68.6492 42.8873 68.8329V51.0137H47.6112Z" fill="white"/>
<path d="M51.9652 51.0137V65.8936C51.6585 66.0773 51.3517 66.1998 51.045 66.3223C50.9223 66.3835 50.7996 66.4447 50.6769 66.506H50.6156C50.4929 66.5672 50.3088 66.6284 50.1861 66.6897C49.2659 67.1183 48.2843 67.4245 47.3027 67.7307V51.0137H51.9652Z" fill="#653978"/>
<path d="M51.9652 51.0137V65.8936C51.6585 66.0773 51.3517 66.1998 51.045 66.3223C50.9223 66.3835 50.7996 66.4447 50.6769 66.506H50.6156C50.4929 66.5672 50.3088 66.6284 50.1861 66.6897C49.2659 67.1183 48.2843 67.4245 47.3027 67.7307V51.0137H51.9652Z" fill="#EDF2F8"/>
<path opacity="0.1" d="M51.9652 57.441V64.8504C51.7198 64.9729 51.4744 65.0953 51.2291 65.2178C51.1064 65.279 50.9837 65.3403 50.861 65.4015H50.7996C50.6769 65.4627 50.4929 65.524 50.3702 65.5852C49.4499 66.0139 48.4684 66.32 47.4868 66.6262C47.4254 66.6262 47.3641 66.6874 47.3027 66.6874V65.0953C47.3641 64.9116 47.4254 64.7279 47.4868 64.5442C48.407 62.1561 49.5726 60.2578 50.9223 58.6657C51.2291 58.2371 51.5971 57.8084 51.9652 57.441Z" fill="#344050"/>
<path opacity="0.1" d="M51.9669 51.0137H42.8873V56.2798H51.9669V51.0137Z" fill="#1C4F93"/>
<path d="M71.2304 32.3949V51.2551H56.5068V51.3163H26.998V17.4537H55.0344C55.4025 17.3925 55.7706 17.3925 56.2 17.3925C56.6908 17.3925 57.1203 17.3925 57.611 17.4537C58.2245 17.5149 58.7767 17.5762 59.3288 17.6986C62.2122 18.311 64.7888 19.7806 66.8133 21.7401C69.574 24.4956 71.2304 28.2922 71.2304 32.3949Z" fill="url(#paint3_linear_1202_4620)"/>
<path d="M59.3236 17.758V31.7806C59.3236 32.2705 58.9555 32.6379 58.4647 32.6379C57.9739 32.6379 57.6058 32.2705 57.6058 31.7806V17.4518C58.158 17.513 58.7715 17.6355 59.3236 17.758Z" fill="url(#paint4_linear_1202_4620)"/>
<path d="M58.7807 36.8039C60.6442 36.8039 62.1548 35.296 62.1548 33.436C62.1548 31.576 60.6442 30.0681 58.7807 30.0681C56.9172 30.0681 55.4065 31.576 55.4065 33.436C55.4065 35.296 56.9172 36.8039 58.7807 36.8039Z" fill="#663A79"/>
<path d="M59.3239 36.3724C61.2552 36.3724 62.8208 34.8645 62.8208 33.0045C62.8208 31.1445 61.2552 29.6366 59.3239 29.6366C57.3926 29.6366 55.827 31.1445 55.827 33.0045C55.827 34.8645 57.3926 36.3724 59.3239 36.3724Z" fill="#D5DAE8"/>
<path d="M59.5085 36.3724C61.372 36.3724 62.8826 34.8645 62.8826 33.0045C62.8826 31.1445 61.372 29.6366 59.5085 29.6366C57.6449 29.6366 56.1343 31.1445 56.1343 33.0045C56.1343 34.8645 57.6449 36.3724 59.5085 36.3724Z" fill="#EAEEF9"/>
<path d="M59.5091 34.2894C60.2207 34.2894 60.7975 33.7136 60.7975 33.0035C60.7975 32.2933 60.2207 31.7175 59.5091 31.7175C58.7976 31.7175 58.2208 32.2933 58.2208 33.0035C58.2208 33.7136 58.7976 34.2894 59.5091 34.2894Z" fill="#D5DAE8"/>
<path d="M41.6609 30.9234V51.3144H11.6001V30.9234C11.6001 24.4937 16.1399 19.1051 22.1521 17.758C23.1336 17.513 24.1152 17.4518 25.1582 17.4518H28.2256C34.9739 17.4518 40.5567 22.3505 41.5996 28.8414C41.5996 29.4537 41.6609 30.1885 41.6609 30.9234Z" fill="url(#paint5_linear_1202_4620)"/>
<path d="M60.4938 16.6589V32.8861C60.4938 33.3759 60.1257 33.7433 59.6349 33.7433C59.1441 33.7433 58.776 33.3759 58.776 32.8861V16.6589H60.4938Z" fill="white"/>
<path d="M36.8675 42.6885C36.8675 43.9745 35.8246 45.0154 34.5363 45.0154C10.4876 45.0154 12.0213 45.1379 11.2238 44.648C10.5489 44.2194 10.1195 43.4846 10.1195 42.6885C11.5305 26.7064 11.2851 26.8901 12.2667 25.9715C13.1869 25.1755 11.8986 25.4204 35.8246 25.4204C36.5608 25.4204 37.2356 25.7878 37.6651 26.2777C38.4626 27.3187 38.2786 26.9513 36.8675 42.6885Z" fill="white"/>
<path d="M37.9092 26.6421C25.7622 36.9295 26.0689 37.1132 24.2898 37.1132C22.388 37.1132 22.572 36.8683 11.7747 26.6421C12.6949 24.9276 12.1427 25.4174 35.8847 25.4174C36.7436 25.4174 37.5411 25.9073 37.9092 26.6421Z" fill="#EAEEF9"/>
<path d="M8.65016 30.0107H0.674836C0.306743 30.0107 0 29.7046 0 29.3372C0 28.9697 0.306743 28.6636 0.674836 28.6636H8.65016C9.01826 28.6636 9.325 28.9697 9.325 29.3372C9.325 29.7046 9.01826 30.0107 8.65016 30.0107Z" fill="url(#paint6_linear_1202_4620)"/>
<path d="M8.27904 33.8118H3.67789C3.3098 33.8118 3.00305 33.5056 3.00305 33.1382C3.00305 32.7708 3.3098 32.4646 3.67789 32.4646H8.27904C8.64713 32.4646 8.95387 32.7708 8.95387 33.1382C8.95387 33.5056 8.64713 33.8118 8.27904 33.8118Z" fill="url(#paint7_linear_1202_4620)"/>
<path d="M7.85048 37.4234H5.27383C4.90574 37.4234 4.599 37.1173 4.599 36.7499C4.599 36.3825 4.90574 36.0763 5.27383 36.0763H7.91183C8.27992 36.0763 8.58666 36.3825 8.58666 36.7499C8.58666 37.1173 8.27992 37.4234 7.85048 37.4234Z" fill="url(#paint8_linear_1202_4620)"/>
<path d="M33.3749 37.2362H30.6142C30.4301 37.2362 30.3074 37.3587 30.3074 37.5424L30.2461 37.9098L30.1234 38.8895L30.062 39.5631L29.9393 40.2979C29.9393 40.3592 29.9393 40.4204 29.9393 40.4816C30.0007 40.6041 30.1234 40.7266 30.2461 40.7266H33.0068C33.1908 40.7266 33.3135 40.6041 33.3135 40.4204L33.6816 37.6648C33.743 37.4199 33.6203 37.2362 33.3749 37.2362ZM32.7 39.7468C32.7 39.8081 32.6387 39.9305 32.516 39.9305H31.1663H30.9823C30.8596 39.9305 30.7982 39.8081 30.7982 39.7468L30.8596 39.2569L30.9209 38.5834L30.9823 38.2772C30.9823 38.216 31.0436 38.0935 31.1663 38.0935H32.7C32.8227 38.0935 32.8841 38.216 32.8841 38.2772L32.7 39.7468Z" fill="url(#paint9_linear_1202_4620)"/>
<path d="M31.1659 38.0273C31.0432 38.0273 30.9819 38.0885 30.9819 38.211L30.9205 38.5171C30.6138 38.7008 30.3684 38.8233 30.123 38.8845C29.9389 38.9458 29.7549 38.9458 29.5708 38.9458C29.0187 38.9458 28.5893 38.7621 28.2212 38.5784C27.669 38.3334 27.5463 38.3334 27.3623 38.5171C27.1782 38.7008 26.9328 38.7008 26.7488 38.5784C26.5647 38.3947 26.5647 38.1497 26.6874 37.966C27.3009 37.2312 28.0371 37.5374 28.5893 37.7823C29.1414 38.0273 29.5708 38.2722 30.2457 37.9048C30.307 37.8436 30.4297 37.8436 30.4911 37.7823C30.6751 37.6599 30.9819 37.7211 31.1045 37.9048C31.1659 37.9048 31.1659 37.966 31.1659 38.0273Z" fill="url(#paint10_linear_1202_4620)"/>
<path d="M31.1669 39.8662L31.1055 39.9275C30.6761 40.2336 30.308 40.3561 30.0012 40.4173C29.8785 40.4173 29.7558 40.4173 29.6945 40.4173C29.1423 40.4173 28.7129 40.2336 28.3448 40.0499C27.7927 39.805 27.67 39.805 27.4859 39.9887C27.3019 40.1724 27.0565 40.1724 26.8724 40.0499C26.6884 39.8662 26.6884 39.6213 26.8111 39.4376C27.4246 38.7028 28.1608 39.0089 28.6516 39.2539C29.081 39.4376 29.5104 39.6213 30.0012 39.4988C30.1853 39.4376 30.308 39.3764 30.5534 39.2539C30.6147 39.1927 30.7374 39.1927 30.8601 39.1927L30.7988 39.6825C30.7988 39.805 30.8601 39.8662 30.9828 39.8662H31.1669Z" fill="url(#paint11_linear_1202_4620)"/>
<path opacity="0.5" d="M41.6601 33.742L41.476 28.7821C40.4331 22.3524 34.8504 17.3925 28.102 17.3925H25.0346C23.9917 17.3925 23.0101 17.5149 22.0285 17.6986L21.6604 18.0048L29.2676 49.2344L41.5987 49.9079V33.742H41.6601Z" fill="url(#paint12_linear_1202_4620)"/>
<path d="M68.778 16.1058C69.0234 16.2895 68.9007 16.7181 68.5326 16.7181H60.5573H58.7168V10.0436H68.5326C68.8393 10.0436 69.0234 10.411 68.778 10.6559L66.2013 12.7991C65.8332 13.1053 65.8332 13.6564 66.2013 13.9626L68.778 16.1058Z" fill="url(#paint13_linear_1202_4620)"/>
<path d="M34.6034 62.8256C33.7445 64.1115 32.7016 66.1935 32.0881 67.9693C32.0268 68.0917 31.9654 68.2754 31.9654 68.3979C31.536 68.3367 31.1065 68.2142 30.6771 68.0917C30.309 67.2344 30.0636 66.3159 30.0636 66.3159C30.309 66.0098 30.493 65.7648 30.7384 65.5199C31.9041 64.0503 33.131 63.0705 34.6034 62.8256Z" fill="#B6C2D2"/>
<path d="M32.3337 68.4584C32.211 68.4584 32.0883 68.3971 31.9656 68.3971C31.5362 68.3359 31.1067 68.2134 30.6773 68.091C30.3705 68.0297 30.1251 67.9073 29.8184 67.846C29.6957 67.7848 29.573 67.7848 29.4503 67.7236C29.3276 67.6623 29.2049 67.6623 29.0209 67.6011C27.4258 67.1112 25.8921 66.4376 24.4197 65.7028C22.886 63.131 22.0271 59.9468 20.5548 55.5992C20.5548 55.5379 20.5548 55.5379 20.4934 55.4767C20.4934 55.4767 20.6161 55.4767 20.9228 55.5992C21.1069 55.7216 21.4136 55.8441 21.7817 56.089C22.5179 56.5789 23.6835 57.4362 25.4013 58.8446C27.5485 60.6204 29.389 63.2535 30.6773 65.4579C31.2294 66.4376 31.7202 67.2949 32.0883 67.9685C32.211 68.091 32.2724 68.2747 32.3337 68.4584Z" fill="#EDF2F8"/>
<path d="M29.8184 67.7816C29.6957 67.7203 29.573 67.7203 29.4503 67.6591C29.3276 67.5979 29.2049 67.5979 29.0209 67.5366C26.1988 61.8418 23.0087 58.229 21.1069 56.147C20.9228 55.9021 20.7388 55.7184 20.5548 55.5347C20.5548 55.4735 20.5548 55.4735 20.4934 55.4122C20.4934 55.4122 20.6161 55.4122 20.9228 55.5347C21.1069 55.6572 21.4136 55.7796 21.7817 56.0246C23.7449 58.229 26.9964 61.9643 29.8184 67.7816Z" fill="#D8E2EE"/>
<path d="M47.6116 67.8451C47.6729 67.8451 47.6729 67.8451 47.7343 67.8451C47.6729 67.8451 47.5502 67.9064 47.4889 67.9064C47.4889 67.8451 47.5502 67.8451 47.6116 67.8451Z" fill="#D5DAE8"/>
<path d="M47.7951 67.7822C47.8564 67.7822 47.8564 67.7822 47.9178 67.7208C47.8564 67.7208 47.7337 67.7822 47.6724 67.7822C47.7337 67.7822 47.7337 67.7822 47.7951 67.7822Z" fill="#D5DAE8"/>
<path d="M58.5354 54.3773C58.5354 54.3773 58.474 54.4998 58.3513 54.7447C57.6151 56.0919 55.0999 60.7457 53.9342 64.7259C53.9342 64.7259 53.8729 64.7872 53.8115 64.7872C53.198 65.1546 52.5846 65.4607 51.9711 65.7669C51.6643 65.9506 51.3576 66.0731 51.0508 66.1956C50.9281 66.2568 50.8054 66.318 50.6827 66.3793H50.6214C50.4987 66.4405 50.3147 66.5017 50.192 66.563C49.2717 66.9916 48.2901 67.2978 47.3086 67.604C47.1859 67.6652 47.0018 67.7264 46.8791 67.7264C46.8178 67.7264 46.7564 67.7877 46.6951 67.7877C46.6337 67.7877 46.5724 67.7877 46.5724 67.8489C46.8178 67.0528 47.0632 66.2568 47.3699 65.5832C48.2901 63.1951 49.4558 61.2968 50.8054 59.7047C51.2349 59.2148 51.6643 58.725 52.0938 58.2963C53.8729 56.5205 55.7747 55.3571 57.5538 54.7447C57.7992 54.6223 58.1673 54.4998 58.5354 54.3773Z" fill="#EDF2F8"/>
<path d="M58.5282 54.3773C58.5282 54.3773 58.4669 54.4998 58.3442 54.7447C56.0129 56.7655 53.8657 59.9496 51.9639 64.0524C51.6572 64.7872 51.3504 65.4607 51.0437 66.2568C50.921 66.318 50.7983 66.3793 50.6756 66.4405H50.6143C50.4916 66.5017 50.3075 66.563 50.1848 66.6242C50.2462 66.5017 50.3075 66.4405 50.3075 66.4405C50.8596 65.0933 51.4118 63.8074 51.9639 62.644C53.6203 59.2761 55.4608 56.5818 57.424 54.7447C57.792 54.6223 58.1601 54.4998 58.5282 54.3773Z" fill="#D8E2EE"/>
<path d="M50.0652 67.9095C49.9425 68.2157 49.8811 68.5219 49.7584 68.8281" stroke="white" stroke-width="0.625" stroke-miterlimit="10"/>
<defs>
<linearGradient id="paint0_linear_1202_4620" x1="38.4105" y1="8.13916" x2="38.4105" y2="69.0062" gradientUnits="userSpaceOnUse">
<stop stop-color="#192942"/>
<stop offset="1" stop-color="#192942" stop-opacity="0.58"/>
</linearGradient>
<linearGradient id="paint1_linear_1202_4620" x1="8.05854" y1="17.8234" x2="9.00349" y2="20.7362" gradientUnits="userSpaceOnUse">
<stop stop-color="#192942"/>
<stop offset="1" stop-color="#192942" stop-opacity="0.58"/>
</linearGradient>
<linearGradient id="paint2_linear_1202_4620" x1="11.7" y1="13.7643" x2="12.3425" y2="15.745" gradientUnits="userSpaceOnUse">
<stop stop-color="#192942"/>
<stop offset="1" stop-color="#192942" stop-opacity="0.58"/>
</linearGradient>
<linearGradient id="paint3_linear_1202_4620" x1="49.1142" y1="17.3925" x2="49.1142" y2="51.3163" gradientUnits="userSpaceOnUse">
<stop stop-color="#192942"/>
<stop offset="1" stop-color="#192942" stop-opacity="0.58"/>
</linearGradient>
<linearGradient id="paint4_linear_1202_4620" x1="58.4647" y1="17.4518" x2="58.4647" y2="32.6379" gradientUnits="userSpaceOnUse">
<stop stop-color="#192942"/>
<stop offset="1" stop-color="#192942" stop-opacity="0.58"/>
</linearGradient>
<linearGradient id="paint5_linear_1202_4620" x1="14.0346" y1="45.5911" x2="39.2525" y2="23.2044" gradientUnits="userSpaceOnUse">
<stop stop-color="#643877" stop-opacity="0.64"/>
<stop offset="1" stop-color="#653978"/>
</linearGradient>
<linearGradient id="paint6_linear_1202_4620" x1="-1.74637" y1="29.3335" x2="9.35613" y2="29.3335" gradientUnits="userSpaceOnUse">
<stop stop-color="#3DBBF9"/>
<stop offset="1" stop-color="#2591C7"/>
</linearGradient>
<linearGradient id="paint7_linear_1202_4620" x1="1.88859" y1="33.1345" x2="8.97374" y2="33.1345" gradientUnits="userSpaceOnUse">
<stop stop-color="#3DBBF9"/>
<stop offset="1" stop-color="#2591C7"/>
</linearGradient>
<linearGradient id="paint8_linear_1202_4620" x1="3.8522" y1="36.7462" x2="8.59997" y2="36.7462" gradientUnits="userSpaceOnUse">
<stop stop-color="#3DBBF9"/>
<stop offset="1" stop-color="#2591C7"/>
</linearGradient>
<linearGradient id="paint9_linear_1202_4620" x1="29.2356" y1="38.9719" x2="33.7098" y2="38.9719" gradientUnits="userSpaceOnUse">
<stop stop-color="#FC97A9"/>
<stop offset="1" stop-color="#E63756"/>
</linearGradient>
<linearGradient id="paint10_linear_1202_4620" x1="25.7472" y1="38.2217" x2="39.0678" y2="37.9559" gradientUnits="userSpaceOnUse">
<stop stop-color="#FC97A9"/>
<stop offset="0.864583" stop-color="#E63756"/>
</linearGradient>
<linearGradient id="paint11_linear_1202_4620" x1="25.8938" y1="39.6932" x2="37.5895" y2="39.4371" gradientUnits="userSpaceOnUse">
<stop stop-color="#FC97A9"/>
<stop offset="1" stop-color="#E63756"/>
</linearGradient>
<linearGradient id="paint12_linear_1202_4620" x1="40.8997" y1="33.3162" x2="26.3075" y2="37.0269" gradientUnits="userSpaceOnUse">
<stop stop-color="#653978"/>
<stop offset="1" stop-color="#653978" stop-opacity="0"/>
</linearGradient>
<linearGradient id="paint13_linear_1202_4620" x1="70.6205" y1="13.3628" x2="58.297" y2="13.3628" gradientUnits="userSpaceOnUse">
<stop stop-color="#3DBBF9"/>
<stop offset="1" stop-color="#192942"/>
</linearGradient>
</defs>
</svg>
