<?xml version="1.0" encoding="UTF-8"?>
<svg width="752pt" height="752pt" version="1.1" viewBox="0 0 752 752" xmlns="http://www.w3.org/2000/svg">
 <path d="m589.11 376c0 117.92-95.191 213.11-213.11 213.11s-213.11-95.191-213.11-213.11 95.188-213.11 213.11-213.11 213.11 95.188 213.11 213.11zm-90.453 141.13-263.31-263.31c-28.414 32.676-45.938 75.301-45.938 122.18v0.47266c0 103.24 83.824 186.59 187.07 186.59 46.883 0.003906 89.504-17.52 122.18-45.934zm64.406-141.13c0-103.24-83.824-186.59-187.07-186.59-46.41 0-89.035 17.051-121.71 45.465l263.31 263.31c28.414-32.68 45.465-75.301 45.465-122.19z"/>
</svg>
