<svg width="170" height="47" viewBox="0 0 170 47" fill="none" xmlns="http://www.w3.org/2000/svg">
<path d="M8.70657 46.7526C6.94247 46.7526 5.44869 46.5949 4.22524 46.2796C3.00178 45.9356 1.73562 45.4339 0.426793 44.7746L0 37.7226H0.682868L2.77415 42.2806C3.79845 43.1406 4.79432 43.7713 5.7617 44.1726C6.72907 44.5453 7.71069 44.7316 8.70657 44.7316C10.3853 44.7316 11.6941 44.2873 12.6331 43.3986C13.6004 42.5099 14.0842 41.3059 14.0842 39.7866C14.0842 38.5253 13.7996 37.5363 13.2306 36.8196C12.69 36.1029 11.8933 35.4723 10.8405 34.9276C9.81623 34.3543 8.59278 33.7093 7.17011 32.9926C5.83281 32.3046 4.69472 31.6309 3.75577 30.9716C2.81683 30.3123 2.10551 29.5526 1.62181 28.6926C1.13811 27.8039 0.896264 26.7003 0.896264 25.3816C0.896264 24.4069 1.12389 23.4609 1.57913 22.5436C2.06283 21.5976 2.70302 20.7519 3.4997 20.0066C4.32485 19.2326 5.2353 18.6306 6.23117 18.2006C7.25547 17.7419 8.30821 17.5126 9.38943 17.5126C10.6982 17.5126 11.9075 17.6703 13.0172 17.9856C14.1268 18.3009 15.2649 18.7453 16.4315 19.3186L16.8583 26.1986H16.1754L14.2122 21.6836C13.2163 20.9383 12.3485 20.4079 11.6088 20.0926C10.869 19.7486 10.0154 19.5766 9.048 19.5766C7.79605 19.5766 6.75757 20.0066 5.93242 20.8666C5.13576 21.7266 4.7374 22.7873 4.7374 24.0486C4.7374 25.5106 5.17844 26.6573 6.06045 27.4886C6.94247 28.2913 8.32245 29.1513 10.2003 30.0686C11.9359 30.9286 13.3586 31.7313 14.4683 32.4766C15.5779 33.1933 16.4031 34.0246 16.9437 34.9706C17.4842 35.9166 17.7546 37.1206 17.7546 38.5826C17.7546 39.9299 17.4701 41.1196 16.901 42.1516C16.3319 43.1549 15.5922 44.0006 14.6817 44.6886C13.7996 45.3766 12.818 45.8926 11.7368 46.2366C10.6841 46.5806 9.67394 46.7526 8.70657 46.7526ZM37.3977 46.7526C35.2638 46.7526 33.3574 46.3513 31.6787 45.5486C30.0284 44.7459 28.7196 43.5133 27.7522 41.8506C26.7848 40.1593 26.3011 37.9806 26.3011 35.3146V20.3506L22.8868 18.6306V17.9426H33.5566V18.6306L30.1422 20.3506V34.6696C30.1422 37.0489 30.5121 38.9409 31.2519 40.3456C31.9916 41.7503 32.9875 42.7536 34.2395 43.3556C35.5198 43.9576 36.9424 44.2586 38.5074 44.2586C39.7593 44.2586 40.9116 43.9863 41.9644 43.4416C43.0456 42.8969 43.8991 42.0369 44.5252 40.8616C45.1795 39.6863 45.5068 38.1239 45.5068 36.1746V20.2646L41.2388 18.6306V17.9426H51.866V18.6306L48.4943 20.3076V35.3146C48.4943 37.9806 48.0106 40.1593 47.0432 41.8506C46.0758 43.5133 44.7527 44.7459 43.0741 45.5486C41.4238 46.3513 39.5317 46.7526 37.3977 46.7526ZM71.2776 46.7526C68.3754 46.7526 65.8718 46.1506 63.7661 44.9466C61.6606 43.7426 60.0388 42.1086 58.9007 40.0446C57.7626 37.9519 57.1935 35.5726 57.1935 32.9066C57.1935 30.8713 57.5776 28.9363 58.3459 27.1016C59.1425 25.2383 60.2095 23.5899 61.5468 22.1566C62.9126 20.7233 64.4772 19.5909 66.2415 18.7596C68.034 17.9283 69.9263 17.5126 71.9178 17.5126C73.3407 17.5126 74.5495 17.6129 75.5455 17.8136C76.5416 17.9856 77.4234 18.2293 78.1917 18.5446C78.9881 18.8313 79.7852 19.1753 80.5817 19.5766L80.7951 27.1016H80.0269L77.4234 21.8556C76.342 21.0816 75.3893 20.5226 74.5639 20.1786C73.7675 19.8346 72.8568 19.6626 71.8325 19.6626C69.7838 19.6626 67.9486 20.1786 66.3268 21.2106C64.7333 22.2426 63.4673 23.6616 62.5284 25.4676C61.6179 27.2449 61.1627 29.2946 61.1627 31.6166C61.1627 34.3399 61.6037 36.6763 62.4858 38.6256C63.3964 40.5463 64.6052 42.0226 66.1134 43.0546C67.6499 44.0579 69.3426 44.5596 71.1923 44.5596C72.757 44.5596 74.0662 44.3446 75.1188 43.9146C76.2002 43.4559 77.1529 42.9543 77.9783 42.4096L80.539 37.8086H81.2646L80.7951 44.6456C79.9697 45.0756 79.1162 45.4483 78.2343 45.7636C77.3808 46.0789 76.3991 46.3226 75.2895 46.4946C74.1798 46.6666 72.8423 46.7526 71.2776 46.7526ZM85.7485 46.3226V45.6346L88.48 44.2156L99.4059 17.7276H101.326L112.082 44.0866L114.941 45.6346V46.3226H104.357V45.6346L108.112 44.1726L104.911 36.2176H94.5404L91.3822 44.1726L94.9672 45.6346V46.3226H85.7485ZM95.5221 33.8526H103.973L99.7473 23.2746L95.5221 33.8526ZM127.617 46.7526C125.853 46.7526 124.359 46.5949 123.136 46.2796C121.912 45.9356 120.646 45.4339 119.337 44.7746L118.91 37.7226H119.593L121.684 42.2806C122.709 43.1406 123.704 43.7713 124.672 44.1726C125.639 44.5453 126.621 44.7316 127.617 44.7316C129.295 44.7316 130.604 44.2873 131.543 43.3986C132.511 42.5099 132.994 41.3059 132.994 39.7866C132.994 38.5253 132.709 37.5363 132.141 36.8196C131.6 36.1029 130.803 35.4723 129.751 34.9276C128.727 34.3543 127.503 33.7093 126.08 32.9926C124.743 32.3046 123.605 31.6309 122.666 30.9716C121.727 30.3123 121.015 29.5526 120.532 28.6926C120.048 27.8039 119.807 26.7003 119.807 25.3816C119.807 24.4069 120.034 23.4609 120.489 22.5436C120.973 21.5976 121.613 20.7519 122.41 20.0066C123.235 19.2326 124.145 18.6306 125.141 18.2006C126.166 17.7419 127.218 17.5126 128.3 17.5126C129.608 17.5126 130.818 17.6703 131.927 17.9856C133.037 18.3009 134.175 18.7453 135.342 19.3186L135.769 26.1986H135.086L133.122 21.6836C132.126 20.9383 131.258 20.4079 130.519 20.0926C129.779 19.7486 128.925 19.5766 127.958 19.5766C126.706 19.5766 125.667 20.0066 124.843 20.8666C124.046 21.7266 123.648 22.7873 123.648 24.0486C123.648 25.5106 124.088 26.6573 124.971 27.4886C125.853 28.2913 127.233 29.1513 129.111 30.0686C130.846 30.9286 132.269 31.7313 133.379 32.4766C134.488 33.1933 135.313 34.0246 135.854 34.9706C136.394 35.9166 136.665 37.1206 136.665 38.5826C136.665 39.9299 136.38 41.1196 135.811 42.1516C135.242 43.1549 134.502 44.0006 133.592 44.6886C132.709 45.3766 131.728 45.8926 130.647 46.2366C129.594 46.5806 128.584 46.7526 127.617 46.7526ZM140.014 46.3226V45.6346L142.746 44.2156L153.672 17.7276H155.592L166.347 44.0866L169.207 45.6346V46.3226H158.622V45.6346L162.378 44.1726L159.177 36.2176H148.806L145.648 44.1726L149.233 45.6346V46.3226H140.014ZM149.788 33.8526H158.238L154.013 23.2746L149.788 33.8526Z" fill="#2E2E2E"/>
<path d="M3.504 9.084C2.952 9.084 2.464 8.988 2.04 8.796C1.624 8.604 1.296 8.336 1.056 7.992C0.816 7.648 0.688 7.264 0.672 6.84H1.56C1.6 7.248 1.78 7.608 2.1 7.92C2.42 8.224 2.888 8.376 3.504 8.376C4.072 8.376 4.52 8.232 4.848 7.944C5.184 7.648 5.352 7.276 5.352 6.828C5.352 6.468 5.26 6.18 5.076 5.964C4.892 5.74 4.664 5.576 4.392 5.472C4.12 5.36 3.744 5.24 3.264 5.112C2.704 4.96 2.26 4.812 1.932 4.668C1.604 4.524 1.324 4.3 1.092 3.996C0.86 3.692 0.744 3.28 0.744 2.76C0.744 2.328 0.856 1.944 1.08 1.608C1.304 1.264 1.62 0.996 2.028 0.804C2.436 0.612 2.904 0.516 3.432 0.516C4.208 0.516 4.832 0.708 5.304 1.092C5.784 1.468 6.06 1.956 6.132 2.556H5.22C5.164 2.212 4.976 1.908 4.656 1.644C4.336 1.372 3.904 1.236 3.36 1.236C2.856 1.236 2.436 1.372 2.1 1.644C1.764 1.908 1.596 2.272 1.596 2.736C1.596 3.088 1.688 3.372 1.872 3.588C2.056 3.804 2.284 3.968 2.556 4.08C2.836 4.192 3.212 4.312 3.684 4.44C4.228 4.592 4.668 4.744 5.004 4.896C5.34 5.04 5.624 5.264 5.856 5.568C6.088 5.872 6.204 6.28 6.204 6.792C6.204 7.184 6.1 7.556 5.892 7.908C5.684 8.26 5.376 8.544 4.968 8.76C4.56 8.976 4.072 9.084 3.504 9.084ZM14.8282 0.611999V1.308H12.5002V9H11.6602V1.308H9.32016V0.611999H14.8282ZM23.1075 7.008H19.2915L18.5595 9H17.6715L20.7315 0.719999H21.6795L24.7275 9H23.8395L23.1075 7.008ZM22.8555 6.312L21.1995 1.776L19.5435 6.312H22.8555ZM33.7126 0.611999L31.0246 5.736V9H30.1846V5.736L27.4726 0.611999H28.4206L30.6046 4.968L32.7766 0.611999H33.7126Z" fill="#4E4E4E"/>
</svg>
